# xmcd CD database file
#
# Track frame offsets:
#	150
#	21290
#	39022
#	60120
#	75572
#	93100
#	110620
#	130755
#	148782
#	166285
#	184125
#	202932
#	216865
#	236225
#	250215
#	268245
#	286432
#	304487
#	326875
#
# Disc length: 4594 seconds
#
# Revision: 3
# Processed by: cddbd v1.5.2PL0 Copyright (c) Steve Scherf et al.
# Submitted via: CDex 1.70beta2
#
DISCID=1211f013
DTITLE=薬師丸ひろ子 - ゴールデン☆ベスト
DYEAR=2002
DGENRE=JPop
TTITLE0=セーラー服と機関銃
TTITLE1=探偵物語
TTITLE2=すこしだけ やさしく
TTITLE3=メイン・テーマ
TTITLE4=Woman “Wの悲劇”より
TTITLE5=あなたを・もっと・知りたくて
TTITLE6=ステキな恋の忘れ方 「野蛮人のように」より
TTITLE7=紳士同盟
TTITLE8=時代
TTITLE9=元気を出して
TTITLE10=語りつぐ愛に
TTITLE11=天に星．地に花．
TTITLE12=ささやきのステップ
TTITLE13=2×2 Two by two
TTITLE14=Windy Boy
TTITLE15=100粒の涙
TTITLE16=瞳で話して
TTITLE17=手をつないでいて
TTITLE18=A LOVER'S CONCERTO
EXTD=YEAR: 2002
EXTT0=
EXTT1=
EXTT2=
EXTT3=
EXTT4=
EXTT5=
EXTT6=
EXTT7=
EXTT8=
EXTT9=
EXTT10=
EXTT11=
EXTT12=
EXTT13=
EXTT14=
EXTT15=
EXTT16=
EXTT17=
EXTT18=
PLAYORDER=
